<?xml version="1.0" standalone="no"?>
<!DOCTYPE svg PUBLIC "-//W3C//DTD SVG 20010904//EN"
 "http://www.w3.org/TR/2001/REC-SVG-20010904/DTD/svg10.dtd">
<svg version="1.0" xmlns="http://www.w3.org/2000/svg"
 width="268.000000pt" height="283.000000pt" viewBox="0 0 268.000000 283.000000"
 preserveAspectRatio="xMidYMid meet">
<metadata>
Created by potrace 1.15, written by Peter Selinger 2001-2017
</metadata>
<g transform="translate(0.000000,283.000000) scale(0.100000,-0.100000)"
fill="#000000" stroke="none">
<path d="M0 1415 l0 -1415 1340 0 1340 0 0 1415 0 1415 -1340 0 -1340 0 0
-1415z m1925 1062 c282 -93 497 -325 566 -612 18 -76 21 -110 16 -220 -4 -112
-9 -143 -36 -225 -91 -270 -302 -473 -578 -552 -110 -32 -323 -32 -435 0 -102
29 -169 60 -252 116 l-70 47 -39 -38 c-21 -21 -74 -77 -118 -124 -79 -86 -79
-87 -64 -115 8 -16 15 -46 15 -66 0 -36 -11 -49 -217 -252 -246 -241 -297
-286 -324 -286 -84 0 -239 152 -239 234 0 13 3 31 6 39 3 8 117 123 254 256
243 235 250 241 290 241 45 0 72 -11 108 -43 19 -18 24 -19 36 -6 8 8 59 63
115 122 l101 109 -44 57 c-201 261 -235 600 -90 894 44 89 64 118 144 201 118
124 274 211 441 246 24 5 109 8 189 6 124 -3 157 -7 225 -29z"/>
<path d="M1596 2408 c-304 -28 -572 -263 -642 -565 -22 -95 -20 -249 6 -348
64 -254 249 -445 510 -527 64 -20 95 -23 210 -22 118 1 145 4 215 27 253 84
445 296 501 551 23 110 15 272 -19 379 -106 330 -427 537 -781 505z m-56 -204
c57 -23 94 -87 87 -151 -2 -25 -15 -58 -27 -75 l-22 -30 107 -231 c59 -128
110 -235 113 -238 4 -4 18 -9 32 -12 24 -6 35 6 132 136 l107 143 -6 55 c-10
102 46 169 142 169 56 0 92 -19 124 -66 20 -28 23 -43 19 -90 -4 -48 -10 -61
-42 -92 -33 -34 -41 -37 -98 -39 l-63 -1 -101 -138 -102 -137 15 -35 c37 -90
-40 -202 -139 -202 -75 0 -148 74 -148 150 0 19 9 50 20 68 l21 34 -111 241
c-62 133 -115 245 -119 249 -3 4 -16 9 -28 10 -30 4 -178 -186 -167 -217 17
-50 16 -110 -2 -142 -53 -100 -210 -99 -258 1 -48 100 21 215 129 216 39 1 43
4 110 92 91 119 87 111 76 158 -16 72 20 148 83 176 41 18 68 17 116 -2z"/>
<path d="M472 600 c-252 -246 -240 -222 -152 -304 l51 -48 97 91 c53 49 157
150 231 224 116 117 132 137 123 154 -15 27 -99 103 -114 103 -7 -1 -113 -99
-236 -220z"/>
</g>
</svg>
