<svg xmlns="http://www.w3.org/2000/svg" viewBox="0 0 294.45 332.61"><defs><style>.cls-1{fill:#fff;}</style></defs><title>Smart City Finder Logo</title><g id="Layer_2" data-name="Layer 2"><g id="Layer_1-2" data-name="Layer 1"><rect class="cls-1" x="135.67" y="144.8" width="8.15" height="10.19" rx="4.08"/><rect class="cls-1" x="147.08" y="144.8" width="8.15" height="10.19" rx="4.08"/><rect class="cls-1" x="85.8" y="96.32" width="8.15" height="10.19" rx="4.08"/><rect class="cls-1" x="102.1" y="96.32" width="8.15" height="10.19" rx="4.08"/><rect class="cls-1" x="118.4" y="96.32" width="8.15" height="10.19" rx="4.08"/><rect class="cls-1" x="134.69" y="96.32" width="8.16" height="10.19" rx="4.08"/><rect class="cls-1" x="110.4" y="111.53" width="8.15" height="10.18" rx="4.08"/><rect class="cls-1" x="110.4" y="127.83" width="8.15" height="10.18" rx="4.08"/><rect class="cls-1" x="110.4" y="144.13" width="8.15" height="10.18" rx="4.08"/><rect class="cls-1" x="110.4" y="160.43" width="8.15" height="10.19" rx="4.08"/><rect class="cls-1" x="110.4" y="176.73" width="8.15" height="10.18" rx="4.08"/><rect class="cls-1" x="110.4" y="193.03" width="8.15" height="10.18" rx="4.08"/><rect class="cls-1" x="110.4" y="209.32" width="8.15" height="10.2" rx="4.08"/><rect class="cls-1" x="110.4" y="225.62" width="8.15" height="10.19" rx="4.08"/><rect class="cls-1" x="72.91" y="127.83" width="8.15" height="10.18" rx="4.08"/><rect class="cls-1" x="84.32" y="127.83" width="8.15" height="10.18" rx="4.08"/><rect class="cls-1" x="72.91" y="144.13" width="8.15" height="10.18" rx="4.08"/><rect class="cls-1" x="84.32" y="144.13" width="8.15" height="10.18" rx="4.08"/><rect class="cls-1" x="135.67" y="128.5" width="8.15" height="10.19" rx="4.08"/><rect class="cls-1" x="147.08" y="128.5" width="8.15" height="10.19" rx="4.08"/><rect class="cls-1" x="72.72" y="183.09" width="8.15" height="10.19" rx="4.08"/><rect class="cls-1" x="84.13" y="183.09" width="8.15" height="10.19" rx="4.08"/><rect class="cls-1" x="72.72" y="199.4" width="8.15" height="10.19" rx="4.08"/><rect class="cls-1" x="84.13" y="199.4" width="8.15" height="10.19" rx="4.08"/><rect class="cls-1" x="72.72" y="215.69" width="8.15" height="10.19" rx="4.08"/><rect class="cls-1" x="84.13" y="215.69" width="8.15" height="10.19" rx="4.08"/><rect class="cls-1" x="135.67" y="183.09" width="8.15" height="10.19" rx="4.08"/><rect class="cls-1" x="147.08" y="183.09" width="8.15" height="10.19" rx="4.08"/><rect class="cls-1" x="135.67" y="199.4" width="8.15" height="10.19" rx="4.08"/><rect class="cls-1" x="147.08" y="199.4" width="8.15" height="10.19" rx="4.08"/><rect class="cls-1" x="135.67" y="215.69" width="8.15" height="10.19" rx="4.08"/><rect class="cls-1" x="147.08" y="215.69" width="8.15" height="10.19" rx="4.08"/><path class="cls-1" d="M291.3,314.91,203.09,227a1.38,1.38,0,0,1-.09-1.86,114.05,114.05,0,0,0,25.9-72.23c0-52.22-35.25-96.4-83.37-110a7.07,7.07,0,0,0-8.77,8.68c.75,2.73,1.49,5.43,2.05,7.51a7,7,0,0,0,4.6,4.84,93.88,93.88,0,0,1,61.16,64.21,1,1,0,0,1,0,.14,108.89,108.89,0,0,1,1.86,19.46,91.55,91.55,0,0,1-9.18,40.77l-4.47,8.15a92.8,92.8,0,0,1-23.65,25.82,1.39,1.39,0,0,1-2.23-1.11V111.79a1.39,1.39,0,0,0-1.39-1.39h-8.82a1.39,1.39,0,0,1-1.39-1.39V85.66A1.39,1.39,0,0,0,154,84.27h-9.7a1.39,1.39,0,0,1-1.39-1.39v-13a1.39,1.39,0,0,0-1.39-1.39h-7.76a1.39,1.39,0,0,1-1.39-1.39V54.2a1.32,1.32,0,0,0-.15-.62l-7.12-14.37c0-.07-.06-.13-.08-.19a78.66,78.66,0,0,1-2.14-8,113.31,113.31,0,0,1-2.37-24v-1a1.39,1.39,0,0,0-.34-.92L116,.47a1.4,1.4,0,0,0-2.08,0l-4.17,4.65a1.41,1.41,0,0,0-.35.93v1A115.1,115.1,0,0,1,107.1,31,81.69,81.69,0,0,1,105,38.89a1.89,1.89,0,0,1-.09.21L97.7,53.58a1.35,1.35,0,0,0-.15.62V68.52H88.77a1.39,1.39,0,0,0-1.39,1.39v13A1.39,1.39,0,0,1,86,84.27H74.7a1.39,1.39,0,0,0-1.39,1.39V109a1.4,1.4,0,0,1-1.4,1.39H62.4a1.4,1.4,0,0,0-1.4,1.4v109a1.39,1.39,0,0,1-2.24,1.1,92.26,92.26,0,0,1-36.17-64.36l-.46-8.14v-.18c0-2.14,0-4.25.12-6.34l.74-8.15q.41-3.13,1-6.18l0-.14A94.73,94.73,0,0,1,86.44,63.62a7,7,0,0,0,4.67-4.78c.58-2.07,1.35-4.76,2.13-7.47a7.07,7.07,0,0,0-8.6-8.8C36.12,55.77,0,100.45,0,152.91c0,63.3,51.6,114.6,114.3,114.6a112.52,112.52,0,0,0,72.23-25.88,1.38,1.38,0,0,1,1.87.08l87.9,87.9a10,10,0,0,0,7.5,3,10.41,10.41,0,0,0,7.5-3A10.15,10.15,0,0,0,291.3,314.91ZM113.64,38.62v0a1.39,1.39,0,0,1,2.68,0l0,.08a69.89,69.89,0,0,0,5.21,13.21,1.39,1.39,0,0,1-1.23,2H109.8a1.4,1.4,0,0,1-1.25-2A71,71,0,0,0,113.64,38.62ZM105.7,67.27V63.41A1.4,1.4,0,0,1,107.09,62h15.7a1.4,1.4,0,0,1,1.39,1.39v5.1H105.7Zm29,10.78v4.83a1.39,1.39,0,0,1-1.39,1.39H96.93a1.39,1.39,0,0,1-1.39-1.39V78.05a1.39,1.39,0,0,1,1.39-1.39h36.39A1.39,1.39,0,0,1,134.71,78.05ZM94.16,238.45a91.76,91.76,0,0,1-24.29-9.28,1.42,1.42,0,0,1-.72-1.22V174.48a1.39,1.39,0,0,1,1.39-1.39H94.46a1.39,1.39,0,0,1,1.39,1.39v62.61A1.39,1.39,0,0,1,94.16,238.45Zm.3-73.51H70.54a1.39,1.39,0,0,1-1.39-1.39V120a1.39,1.39,0,0,1,1.39-1.39H94.46A1.39,1.39,0,0,1,95.85,120v43.6A1.39,1.39,0,0,1,94.46,164.94ZM124,169V238.9a1.39,1.39,0,0,1-1.26,1.39c-2.52.23-5.07.37-7.65.39h-.75a91.81,91.81,0,0,1-11.18-.71H104V111.79a1.39,1.39,0,0,0-1.39-1.39H82.84A1.39,1.39,0,0,1,81.45,109V92.42H145.8a1.39,1.39,0,0,1,1.39,1.39V109a1.39,1.39,0,0,1-1.39,1.39H125.34a1.39,1.39,0,0,0-1.39,1.39Zm34.12,60.6a91.45,91.45,0,0,1-24.29,9,1.4,1.4,0,0,1-1.68-1.37V174.48a1.39,1.39,0,0,1,1.39-1.39h23.92a1.39,1.39,0,0,1,1.39,1.39v53.9A1.4,1.4,0,0,1,158.07,229.61Zm-.66-64.67H133.49a1.39,1.39,0,0,1-1.39-1.39V120a1.39,1.39,0,0,1,1.39-1.39h23.92A1.39,1.39,0,0,1,158.8,120v43.6A1.39,1.39,0,0,1,157.41,164.94Z"/></g></g></svg>